<svg width="36" height="36" viewBox="0 0 36 36" fill="none" xmlns="http://www.w3.org/2000/svg">
<path d="M31.2384 8.27859C31.1328 8.15222 31.0008 8.05058 30.8516 7.98084C30.7024 7.9111 30.5397 7.87497 30.375 7.875H7.68937L7.00172 4.09781C6.90753 3.57938 6.63438 3.11044 6.22988 2.77276C5.82538 2.43508 5.3152 2.25008 4.78828 2.25H2.25C1.95163 2.25 1.66548 2.36853 1.4545 2.5795C1.24353 2.79048 1.125 3.07663 1.125 3.375C1.125 3.67337 1.24353 3.95952 1.4545 4.1705C1.66548 4.38147 1.95163 4.5 2.25 4.5H4.78125L8.37563 24.2283C8.4815 24.8134 8.74007 25.3601 9.12516 25.8131C8.59366 26.3096 8.21004 26.9435 8.01683 27.6446C7.82362 28.3458 7.82838 29.0867 8.03057 29.7853C8.23276 30.4839 8.62449 31.1129 9.16232 31.6025C9.70014 32.092 10.3631 32.4231 11.0775 32.5589C11.792 32.6947 12.5302 32.63 13.2101 32.3719C13.89 32.1138 14.4852 31.6725 14.9297 31.0968C15.3741 30.5211 15.6504 29.8336 15.7279 29.1104C15.8054 28.3873 15.6812 27.6568 15.3689 27H21.7561C21.5044 27.5269 21.3742 28.1036 21.375 28.6875C21.375 29.4663 21.6059 30.2275 22.0386 30.8751C22.4712 31.5226 23.0862 32.0273 23.8057 32.3253C24.5252 32.6233 25.3169 32.7013 26.0807 32.5493C26.8445 32.3974 27.5461 32.0224 28.0967 31.4717C28.6474 30.9211 29.0224 30.2195 29.1743 29.4557C29.3263 28.6919 29.2483 27.9002 28.9503 27.1807C28.6523 26.4612 28.1476 25.8462 27.5001 25.4136C26.8525 24.9809 26.0913 24.75 25.3125 24.75H11.6958C11.4323 24.75 11.1772 24.6575 10.975 24.4886C10.7727 24.3198 10.6362 24.0853 10.5891 23.8261L10.1433 21.375H26.4558C27.2462 21.3749 28.0114 21.0974 28.6182 20.5909C29.2249 20.0843 29.6347 19.3809 29.7759 18.6033L31.4859 9.20109C31.5149 9.03859 31.5077 8.8717 31.4649 8.71227C31.4222 8.55285 31.3448 8.40479 31.2384 8.27859ZM13.5 28.6875C13.5 29.0213 13.401 29.3475 13.2156 29.625C13.0302 29.9025 12.7666 30.1188 12.4583 30.2465C12.1499 30.3743 11.8106 30.4077 11.4833 30.3426C11.1559 30.2775 10.8553 30.1167 10.6193 29.8807C10.3833 29.6447 10.2225 29.3441 10.1574 29.0167C10.0923 28.6894 10.1257 28.3501 10.2535 28.0417C10.3812 27.7334 10.5975 27.4698 10.875 27.2844C11.1525 27.099 11.4787 27 11.8125 27C12.2601 27 12.6893 27.1778 13.0057 27.4943C13.3222 27.8107 13.5 28.2399 13.5 28.6875ZM27 28.6875C27 29.0213 26.901 29.3475 26.7156 29.625C26.5302 29.9025 26.2666 30.1188 25.9583 30.2465C25.6499 30.3743 25.3106 30.4077 24.9833 30.3426C24.6559 30.2775 24.3553 30.1167 24.1193 29.8807C23.8833 29.6447 23.7225 29.3441 23.6574 29.0167C23.5923 28.6894 23.6257 28.3501 23.7535 28.0417C23.8812 27.7334 24.0975 27.4698 24.375 27.2844C24.6525 27.099 24.9787 27 25.3125 27C25.7601 27 26.1893 27.1778 26.5057 27.4943C26.8222 27.8107 27 28.2399 27 28.6875ZM27.5625 18.2011C27.5153 18.461 27.3781 18.696 27.175 18.865C26.9718 19.0339 26.7157 19.126 26.4516 19.125H9.73406L8.09859 10.125H29.0264L27.5625 18.2011Z" fill="#7F5539"/>
</svg>
