<svg width="29" height="29" viewBox="0 0 29 29" fill="none" xmlns="http://www.w3.org/2000/svg">
<path fill-rule="evenodd" clip-rule="evenodd" d="M14.461 4.30544L12.9642 2.58741C12.2627 1.77132 11.4275 1.12257 10.5066 0.678524C9.58576 0.234473 8.59749 0.00388958 7.59868 4.87857e-05C6.59987 -0.00379201 5.61027 0.219186 4.68685 0.656145C3.76343 1.0931 2.92444 1.73541 2.21817 2.54608C1.5119 3.35676 0.952321 4.31978 0.571639 5.37971C0.190957 6.43964 -0.00330363 7.57554 4.25026e-05 8.722C0.00338863 9.86846 0.204275 11.0028 0.591136 12.0598C0.977997 13.1168 1.54319 14.0755 2.25417 14.8807L14.4252 28.851L14.4279 28.8478L14.4637 28.8889L26.6347 14.9186C27.3457 14.1134 27.9109 13.1547 28.2978 12.0977C28.6846 11.0408 28.8855 9.90639 28.8888 8.75993C28.8922 7.61347 28.6979 6.47758 28.3172 5.41765C27.9366 4.35772 27.377 3.39469 26.6707 2.58402C25.9645 1.77334 25.1255 1.13104 24.202 0.694077C23.2786 0.257119 22.289 0.0341404 21.2902 0.0379812C20.2914 0.041822 19.3031 0.272406 18.3823 0.716457C17.4614 1.16051 16.6262 1.80925 15.9247 2.62534L14.461 4.30544ZM14.4279 24.3781L21.2246 16.575L23.2212 14.3623H23.224L24.6877 12.6838C25.5915 11.6463 26.0993 10.2392 26.0993 8.77199C26.0993 7.30479 25.5915 5.89767 24.6877 4.8602C23.7838 3.82273 22.5579 3.23988 21.2797 3.23988C20.0015 3.23988 18.7756 3.82273 17.8717 4.8602L14.4623 8.77515L14.4527 8.76409L11.0172 4.82385C10.1133 3.78637 8.88743 3.20353 7.60919 3.20353C6.33095 3.20353 5.10505 3.78637 4.2012 4.82385C3.29735 5.86132 2.78956 7.26843 2.78956 8.73564C2.78956 10.2028 3.29735 11.61 4.2012 12.6474L7.69869 16.662L7.70007 16.6572L14.4279 24.3797V24.3781Z" fill="#BF0000"/>
</svg>
