<svg width="24" height="24" viewBox="0 0 24 24" fill="none" xmlns="http://www.w3.org/2000/svg">
<path d="M17.625 11.5746C17.625 13.188 17.1012 14.6785 16.2188 15.8877L20.6695 20.3413C21.109 20.7807 21.109 21.4943 20.6695 21.9336C20.2301 22.373 19.5164 22.373 19.077 21.9336L14.6262 17.48C13.4168 18.3658 11.9262 18.886 10.3125 18.886C6.27305 18.886 3 15.6135 3 11.5746C3 7.53575 6.27305 4.26318 10.3125 4.26318C14.352 4.26318 17.625 7.53575 17.625 11.5746ZM10.3125 16.6364C10.9773 16.6364 11.6356 16.5054 12.2498 16.2511C12.864 15.9967 13.4221 15.6238 13.8922 15.1538C14.3623 14.6838 14.7352 14.1258 14.9896 13.5117C15.2441 12.8975 15.375 12.2393 15.375 11.5746C15.375 10.9099 15.2441 10.2517 14.9896 9.63756C14.7352 9.02344 14.3623 8.46544 13.8922 7.99541C13.4221 7.52538 12.864 7.15253 12.2498 6.89816C11.6356 6.64378 10.9773 6.51285 10.3125 6.51285C9.64768 6.51285 8.98938 6.64378 8.37516 6.89816C7.76095 7.15253 7.20287 7.52538 6.73277 7.99541C6.26268 8.46544 5.88977 9.02344 5.63536 9.63756C5.38095 10.2517 5.25 10.9099 5.25 11.5746C5.25 12.2393 5.38095 12.8975 5.63536 13.5117C5.88977 14.1258 6.26268 14.6838 6.73277 15.1538C7.20287 15.6238 7.76095 15.9967 8.37516 16.2511C8.98938 16.5054 9.64768 16.6364 10.3125 16.6364Z" fill="#7F5539"/>
</svg>
