<svg width="36" height="36" viewBox="0 0 36 36" fill="none" xmlns="http://www.w3.org/2000/svg">
<path d="M15 16.5V12L22.5 18L15 24V19.5H1.5V16.5H15ZM3.687 22.5H6.873C7.92007 25.0786 9.83056 27.2133 12.2777 28.5389C14.7248 29.8645 17.5565 30.2987 20.2883 29.7671C23.0202 29.2356 25.4825 27.7713 27.254 25.6249C29.0255 23.4784 29.9962 20.7831 30 18C30.0016 15.214 29.0337 12.5143 27.2624 10.3638C25.491 8.21342 23.0267 6.74634 20.292 6.21422C17.5572 5.6821 14.7226 6.11811 12.2742 7.44747C9.82576 8.77682 7.9162 10.9167 6.873 13.5H3.687C5.598 7.4145 11.283 3 18 3C26.2845 3 33 9.7155 33 18C33 26.2845 26.2845 33 18 33C11.283 33 5.598 28.5855 3.687 22.5Z" fill="#7F5539"/>
</svg>
